<?xml version="1.0" encoding="UTF-8"?>
<svg xmlns="http://www.w3.org/2000/svg" xmlns:xlink="http://www.w3.org/1999/xlink" version="1.1" viewBox="0 0 928.4 327.4">
  <defs>
    <style>
      .cls-1 {
        fill: none;
      }

      .cls-2 {
        mask: url(#mask);
      }

      .cls-3 {
        fill: #202b1c;
      }

      .cls-3, .cls-4 {
        fill-rule: evenodd;
      }

      .cls-5 {
        isolation: isolate;
      }

      .cls-6 {
        clip-path: url(#clippath-17);
      }

      .cls-7 {
        clip-path: url(#clippath-11);
      }

      .cls-8 {
        clip-path: url(#clippath-16);
      }

      .cls-9 {
        clip-path: url(#clippath-10);
      }

      .cls-10 {
        clip-path: url(#clippath-15);
      }

      .cls-11 {
        clip-path: url(#clippath-13);
      }

      .cls-12 {
        clip-path: url(#clippath-14);
      }

      .cls-13 {
        clip-path: url(#clippath-12);
      }

      .cls-14 {
        clip-path: url(#clippath-1);
      }

      .cls-15 {
        clip-path: url(#clippath-3);
      }

      .cls-16 {
        clip-path: url(#clippath-4);
      }

      .cls-17 {
        clip-path: url(#clippath-2);
      }

      .cls-18 {
        clip-path: url(#clippath-7);
      }

      .cls-19 {
        clip-path: url(#clippath-6);
      }

      .cls-20 {
        clip-path: url(#clippath-9);
      }

      .cls-21 {
        clip-path: url(#clippath-8);
      }

      .cls-22 {
        clip-path: url(#clippath-5);
      }

      .cls-23 {
        fill: #d55188;
      }

      .cls-24 {
        fill: #fff;
      }

      .cls-25 {
        clip-path: url(#clippath);
      }
    </style>
    <clipPath id="clippath">
      <rect class="cls-1" x="2" width="392" height="140"/>
    </clipPath>
    <mask id="mask" x="1.4" y="0" width="393" height="140" maskUnits="userSpaceOnUse">
      <g id="_x31_c6c646ab8">
        <image class="cls-5" width="751" height="268" transform="translate(1.4 0) scale(.5)" xlink:href="devdive-logo-wthb-dark-1.png"/>
      </g>
    </mask>
    <clipPath id="clippath-1">
      <rect class="cls-1" x="410" y="106.7" width="66.7" height="149.3"/>
    </clipPath>
    <clipPath id="clippath-2">
      <rect class="cls-1" x="412.4" y="106.2" width="149" height="152" transform="translate(263.7 651.6) rotate(-85.1)"/>
    </clipPath>
    <clipPath id="clippath-3">
      <rect class="cls-1" x="412.4" y="106.2" width="149" height="152" transform="translate(263.7 651.6) rotate(-85.1)"/>
    </clipPath>
    <clipPath id="clippath-4">
      <rect class="cls-1" x="479.4" y="112" width="88" height="140"/>
    </clipPath>
    <clipPath id="clippath-5">
      <rect class="cls-1" x="412.4" y="106.2" width="149" height="152" transform="translate(263.7 651.6) rotate(-85.1)"/>
    </clipPath>
    <clipPath id="clippath-6">
      <rect class="cls-1" x="412.4" y="106.2" width="149" height="152" transform="translate(263.7 651.6) rotate(-85.1)"/>
    </clipPath>
    <clipPath id="clippath-7">
      <rect class="cls-1" x="454" y="130.7" width="61.3" height="121.3"/>
    </clipPath>
    <clipPath id="clippath-8">
      <rect class="cls-1" x="412.4" y="106.2" width="149" height="152" transform="translate(263.7 651.6) rotate(-85.1)"/>
    </clipPath>
    <clipPath id="clippath-9">
      <rect class="cls-1" x="412.4" y="106.2" width="149" height="152" transform="translate(263.7 651.6) rotate(-85.1)"/>
    </clipPath>
    <clipPath id="clippath-10">
      <rect class="cls-1" x="404.8" y="164" width="156" height="70.7"/>
    </clipPath>
    <clipPath id="clippath-11">
      <rect class="cls-1" x="423.4" y="176.4" width="59.5" height="37.9"/>
    </clipPath>
    <clipPath id="clippath-12">
      <path class="cls-1" d="M453.1,176.4c-16.4,0-29.7,8.5-29.7,18.9s13.3,18.9,29.7,18.9,29.7-8.5,29.7-18.9-13.3-18.9-29.7-18.9Z"/>
    </clipPath>
    <clipPath id="clippath-13">
      <rect class="cls-1" x="500.7" y="196" width="30.7" height="21.3"/>
    </clipPath>
    <clipPath id="clippath-14">
      <rect class="cls-1" x="506.1" y="191.9" width="19.2" height="30.2" transform="translate(205.8 668.3) rotate(-78)"/>
    </clipPath>
    <clipPath id="clippath-15">
      <path class="cls-1" d="M517.7,197.6c-8.1-1.7-15.6,1.1-16.7,6.3-1.1,5.2,4.6,10.8,12.7,12.5,8.1,1.7,15.6-1.1,16.7-6.3,1.1-5.2-4.6-10.8-12.7-12.5Z"/>
    </clipPath>
    <clipPath id="clippath-16">
      <rect class="cls-1" x="419.2" y="193.8" width="3.7" height="3.7"/>
    </clipPath>
    <clipPath id="clippath-17">
      <path class="cls-1" d="M421,193.8c-1,0-1.9.8-1.9,1.9s.8,1.9,1.9,1.9,1.9-.8,1.9-1.9-.8-1.9-1.9-1.9Z"/>
    </clipPath>
  </defs>
  <!-- Generator: Adobe Illustrator 28.7.1, SVG Export Plug-In . SVG Version: 1.2.0 Build 142)  -->
  <g>
    <g id="Layer_1">
      <path d="M96.8,257.3v-112.6c0-1.6.8-2.4,2.4-2.4h62.9c1.6,0,2.4.8,2.4,2.4v2.8c0,1.6.8,2.4,2.4,2.4h2.8c1.6,0,2.4.8,2.4,2.4v2.8c0,1.6.8,2.4,2.4,2.4h2.8c1.6,0,2.4.8,2.4,2.4v82.5c0,1.6-.8,2.4-2.4,2.4h-2.8c-1.6,0-2.4.8-2.4,2.4v2.8c0,1.6-.8,2.4-2.4,2.4h-2.8c-1.6,0-2.4.8-2.4,2.4v2.8c0,1.6-.8,2.4-2.4,2.4h-62.9c-1.6,0-2.4-.8-2.4-2.4ZM130.7,152.3v97.5c0,1.6.8,2.4,2.4,2.4h2.8c1.6,0,2.4-.8,2.4-2.4v-2.8c0-1.6.8-2.4,2.4-2.4h2.8c1.6,0,2.4-.8,2.4-2.4v-82.5c0-1.6-.8-2.4-2.4-2.4h-2.8c-1.6,0-2.4-.8-2.4-2.4v-2.8c0-1.6-.8-2.4-2.4-2.4h-2.8c-1.6,0-2.4.8-2.4,2.4Z"/>
      <path d="M216,257.3v-2.8c0-1.6-.8-2.4-2.4-2.4h-2.8c-1.6,0-2.4-.8-2.4-2.4v-2.8c0-1.6-.8-2.4-2.4-2.4h-2.8c-1.6,0-2.4-.8-2.4-2.4v-52.9c0-1.6.8-2.4,2.4-2.4h2.8c1.6,0,2.4-.8,2.4-2.4v-2.8c0-1.6.8-2.4,2.4-2.4h2.8c1.6,0,2.4-.8,2.4-2.4v-2.8c0-1.6.8-2.4,2.4-2.4h47.9c1.6,0,2.4.8,2.4,2.4v2.8c0,1.6.8,2.4,2.4,2.4h2.8c1.6,0,2.4.8,2.4,2.4v2.8c0,1.6.8,2.4,2.4,2.4h2.8c1.6,0,2.4.8,2.4,2.4v20.3c0,1.6-.8,2.4-2.4,2.4h-2.8c-1.6,0-2.4.8-2.4,2.4v2.8c0,1.6-.8,2.4-2.4,2.4h-36.6c-1.6,0-2.4.8-2.4,2.4v27.8c0,1.6.8,2.4,2.4,2.4h2.8c1.6,0,2.4-.8,2.4-2.4v-2.8c0-1.6.8-2.4,2.4-2.4h2.8c1.6,0,2.4-.8,2.4-2.4v-8.6c0-1.6.8-2.4,2.4-2.4h29.1c1.6,0,2.4.8,2.4,2.4v8.6c0,1.6-.8,2.4-2.4,2.4h-2.8c-1.6,0-2.4.8-2.4,2.4v2.8c0,1.6-.8,2.4-2.4,2.4h-2.8c-1.6,0-2.4.8-2.4,2.4v2.8c0,1.6-.8,2.4-2.4,2.4h-47.9c-1.6,0-2.4-.8-2.4-2.4ZM237.2,212.1h10.3c1.6,0,2.4-.8,2.4-2.4v-27.8c0-1.6-.8-2.4-2.4-2.4h-2.8c-1.6,0-2.4.8-2.4,2.4v2.8c0,1.6-.8,2.4-2.4,2.4h-2.8c-1.6,0-2.4.8-2.4,2.4v20.3c0,1.6.8,2.4,2.4,2.4Z"/>
      <path d="M310.1,257.3v-2.8c0-1.6-.8-2.4-2.4-2.4h-2.8c-1.6,0-2.4-.8-2.4-2.4v-75.5c0-1.6.8-2.4,2.4-2.4h29.1c1.6,0,2.4.8,2.4,2.4v75.5c0,1.6.8,2.4,2.4,2.4h3.6c1.6,0,2.4-.8,2.4-2.4v-2.8c0-1.6.8-2.4,2.4-2.4h2.8c1.6,0,2.4-.8,2.4-2.4v-67.9c0-1.6.8-2.4,2.4-2.4h29.1c1.6,0,2.4.8,2.4,2.4v52.9c0,1.6-.8,2.4-2.4,2.4h-4.1c-1.6,0-2.4.8-2.4,2.4v2.8c0,1.6-.8,2.4-2.4,2.4h-2.8c-1.6,0-2.4.8-2.4,2.4v2.8c0,1.6-.8,2.4-2.4,2.4h-2.8c-1.6,0-2.4.8-2.4,2.4v2.8c0,1.6-.8,2.4-2.4,2.4h-1.3c-1.6,0-2.4.8-2.4,2.4v2.8c0,1.6-.8,2.4-2.4,2.4h-41.4c-1.6,0-2.4-.8-2.4-2.4Z"/>
      <path d="M582.5,257.3v-112.6c0-1.6.8-2.4,2.4-2.4h62.9c1.6,0,2.4.8,2.4,2.4v2.8c0,1.6.8,2.4,2.4,2.4h2.8c1.6,0,2.4.8,2.4,2.4v2.8c0,1.6.8,2.4,2.4,2.4h2.8c1.6,0,2.4.8,2.4,2.4v82.5c0,1.6-.8,2.4-2.4,2.4h-2.8c-1.6,0-2.4.8-2.4,2.4v2.8c0,1.6-.8,2.4-2.4,2.4h-2.8c-1.6,0-2.4.8-2.4,2.4v2.8c0,1.6-.8,2.4-2.4,2.4h-62.9c-1.6,0-2.4-.8-2.4-2.4ZM616.3,152.3v97.5c0,1.6.8,2.4,2.4,2.4h2.8c1.6,0,2.4-.8,2.4-2.4v-2.8c0-1.6.8-2.4,2.4-2.4h2.8c1.6,0,2.4-.8,2.4-2.4v-82.5c0-1.6-.8-2.4-2.4-2.4h-2.8c-1.6,0-2.4-.8-2.4-2.4v-2.8c0-1.6-.8-2.4-2.4-2.4h-2.8c-1.6,0-2.4.8-2.4,2.4Z"/>
      <path d="M686.6,257.3v-83c0-1.6.8-2.4,2.4-2.4h29.1c1.6,0,2.4.8,2.4,2.4v83c0,1.6-.8,2.4-2.4,2.4h-29.1c-1.6,0-2.4-.8-2.4-2.4ZM690.4,162.1v-.3c0-1.6-.9-2.4-2.6-2.4s-2.4-.8-2.4-2.4v-11.5c0-1.6.9-2.4,2.6-2.4s2.4-.9,2.4-2.6.8-2.4,2.4-2.4h21.6c1.6,0,2.4.9,2.4,2.6s.9,2.4,2.6,2.4,2.4.8,2.4,2.4v11.5c0,1.6-.9,2.4-2.6,2.4s-2.4.9-2.4,2.6-.8,2.4-2.4,2.4h-21.6c-1.6,0-2.4-.8-2.4-2.4Z"/>
      <path d="M749.4,257.3v-2.8c0-1.6-.8-2.4-2.4-2.4h-2.8c-1.6,0-2.4-.8-2.4-2.4v-75.5c0-1.6.8-2.4,2.4-2.4h29.1c1.6,0,2.4.8,2.4,2.4v75.5c0,1.6.8,2.4,2.4,2.4h3.6c1.6,0,2.4-.8,2.4-2.4v-2.8c0-1.6.8-2.4,2.4-2.4h2.8c1.6,0,2.4-.8,2.4-2.4v-67.9c0-1.6.8-2.4,2.4-2.4h29.1c1.6,0,2.4.8,2.4,2.4v52.9c0,1.6-.8,2.4-2.4,2.4h-4.1c-1.6,0-2.4.8-2.4,2.4v2.8c0,1.6-.8,2.4-2.4,2.4h-2.8c-1.6,0-2.4.8-2.4,2.4v2.8c0,1.6-.8,2.4-2.4,2.4h-2.8c-1.6,0-2.4.8-2.4,2.4v2.8c0,1.6-.8,2.4-2.4,2.4h-1.3c-1.6,0-2.4.8-2.4,2.4v2.8c0,1.6-.8,2.4-2.4,2.4h-41.4c-1.6,0-2.4-.8-2.4-2.4Z"/>
      <path d="M860.7,257.3v-2.8c0-1.6-.8-2.4-2.4-2.4h-2.8c-1.6,0-2.4-.8-2.4-2.4v-2.8c0-1.6-.8-2.4-2.4-2.4h-2.8c-1.6,0-2.4-.8-2.4-2.4v-52.9c0-1.6.8-2.4,2.4-2.4h2.8c1.6,0,2.4-.8,2.4-2.4v-2.8c0-1.6.8-2.4,2.4-2.4h2.8c1.6,0,2.4-.8,2.4-2.4v-2.8c0-1.6.8-2.4,2.4-2.4h47.9c1.6,0,2.4.8,2.4,2.4v2.8c0,1.6.8,2.4,2.4,2.4h2.8c1.6,0,2.4.8,2.4,2.4v2.8c0,1.6.8,2.4,2.4,2.4h2.8c1.6,0,2.4.8,2.4,2.4v20.3c0,1.6-.8,2.4-2.4,2.4h-2.8c-1.6,0-2.4.8-2.4,2.4v2.8c0,1.6-.8,2.4-2.4,2.4h-36.6c-1.6,0-2.4.8-2.4,2.4v27.8c0,1.6.8,2.4,2.4,2.4h2.8c1.6,0,2.4-.8,2.4-2.4v-2.8c0-1.6.8-2.4,2.4-2.4h2.8c1.6,0,2.4-.8,2.4-2.4v-8.6c0-1.6.8-2.4,2.4-2.4h29.1c1.6,0,2.4.8,2.4,2.4v8.6c0,1.6-.8,2.4-2.4,2.4h-2.8c-1.6,0-2.4.8-2.4,2.4v2.8c0,1.6-.8,2.4-2.4,2.4h-2.8c-1.6,0-2.4.8-2.4,2.4v2.8c0,1.6-.8,2.4-2.4,2.4h-47.9c-1.6,0-2.4-.8-2.4-2.4ZM881.9,212.1h10.3c1.6,0,2.4-.8,2.4-2.4v-27.8c0-1.6-.8-2.4-2.4-2.4h-2.8c-1.6,0-2.4.8-2.4,2.4v2.8c0,1.6-.8,2.4-2.4,2.4h-2.8c-1.6,0-2.4.8-2.4,2.4v20.3c0,1.6.8,2.4,2.4,2.4Z"/>
      <g class="cls-25">
        <g class="cls-2">
          <image class="cls-5" width="751" height="268" transform="translate(1.4 0) scale(.5)" xlink:href="devdive-logo-wthb-dark-2.png"/>
        </g>
      </g>
      <path d="M175.9,320.9c0-.7-.4-1.3-1.1-1.8-.7-.5-1.6-1.1-2.7-1.7-1.1-.6-2.3-1.2-3.6-1.9-1.3-.7-2.5-1.5-3.6-2.4-1.1-.9-2-1.9-2.8-3.1-.7-1.2-1.1-2.6-1.1-4.2s.2-1.7.6-2.7c.4-1,1.1-1.9,1.9-2.8.9-.9,2-1.6,3.4-2.2,1.3-.6,2.9-.9,4.8-.9s4.8.5,6.8,1.4c2,1,4,2.6,6,5l-3.5,3.6c-.4-.6-.8-1.2-1.4-1.9-.6-.7-1.2-1.3-1.9-1.8-.7-.5-1.5-1-2.3-1.4-.8-.4-1.7-.6-2.6-.6s-1.9.2-2.4.6c-.6.4-.8.9-.8,1.5s.4,1.3,1.1,1.8c.7.5,1.7,1.1,2.8,1.7,1.1.6,2.3,1.2,3.6,1.9,1.3.7,2.5,1.5,3.6,2.3,1.1.9,2,1.9,2.8,3.1.7,1.2,1.1,2.6,1.1,4.2s-.2,1.7-.6,2.7c-.4,1-1,1.9-1.9,2.8-.9.9-2,1.6-3.3,2.2-1.4.6-3,.9-4.9.9s-2.4-.1-3.5-.3c-1.2-.2-2.2-.6-3.3-1.1-1-.5-2.1-1.2-3-2-1-.8-2-1.8-3-3l3.5-3.5c.4.6.9,1.2,1.4,1.8.6.7,1.2,1.3,1.9,1.8.7.6,1.5,1.1,2.3,1.4.8.4,1.7.6,2.6.6s1.9-.2,2.4-.6c.5-.4.8-.9.8-1.5Z"/>
      <path d="M201.9,296.4c2.3,0,4.3.5,6,1.4,1.7.9,3.1,2.1,4.2,3.6,1.2,1.5,2,3.2,2.6,5.1.6,1.9.9,3.9.9,5.9s-.3,4-.9,5.9c-.6,1.9-1.4,3.6-2.6,5.1-1.1,1.5-2.6,2.7-4.2,3.6-1.7.9-3.7,1.4-6,1.4s-4.3-.5-6-1.4c-1.7-.9-3.1-2.1-4.3-3.6-1.1-1.5-2-3.2-2.6-5.1-.6-1.9-.9-3.9-.9-5.9s.3-3.9.9-5.9c.6-1.9,1.4-3.6,2.6-5.1,1.2-1.5,2.6-2.7,4.3-3.6,1.7-.9,3.7-1.4,6-1.4ZM201.9,323.8c.6,0,1.1-.2,1.7-.7.5-.4,1-1.1,1.5-2,.4-.9.8-2.1,1.1-3.5.3-1.4.4-3.1.4-5.1s-.1-3.7-.4-5.1c-.3-1.4-.6-2.6-1.1-3.6-.4-.9-.9-1.6-1.5-2-.5-.4-1.1-.6-1.7-.6s-1.1.2-1.7.6c-.5.4-1,1.1-1.5,2-.4.9-.8,2.1-1,3.6-.3,1.4-.4,3.2-.4,5.1s.1,3.7.4,5.1c.3,1.4.6,2.6,1,3.5.4.9.9,1.6,1.5,2,.5.4,1.1.7,1.7.7Z"/>
      <path d="M228.6,309.2h8.6v4.3h-8.6v13.9h-8.5v-29.9h17.1l1.1,6.4h-9.6v5.4Z"/>
      <path d="M257.6,303.8v23.5h-8.6v-23.5h-7.5l1.1-6.4h21.4l1.1,6.4h-7.5Z"/>
      <path d="M312.9,297.4l-8.5,29.9h-8.5l-5.4-18.7-5.4,18.7h-8.6l-8.5-29.9h8.5l5.4,18.7,5.3-18.7h8.6l5.4,18.7,5.3-18.7h6.4Z"/>
      <path d="M330.4,318.8h-5.8l-2.5,8.5h-6.4l8.5-29.9h8.6l8.5,29.9h-8.5l-2.4-8.5ZM329.2,314.5l-1.7-5.9-1.7,5.9h3.4Z"/>
      <path d="M369,327.4h-8.6l-4.2-12.8h-2.2v12.8h-8.5v-29.9h10.7c1.6,0,3.1.1,4.6.4,1.4.3,2.7.8,3.7,1.4,1.1.7,1.9,1.6,2.5,2.6s.9,2.4.9,4-.4,3.2-1.1,4.3c-.7,1.1-1.7,2-3,2.7l5.1,14.4ZM354.1,310.3c.9,0,1.7-.1,2.4-.4.7-.3,1.3-.6,1.7-1,.4-.4.8-.8,1-1.4.2-.5.3-1,.3-1.5s-.1-1.1-.3-1.6c-.3-.5-.6-1-1-1.4-.5-.4-1.1-.7-1.7-.9-.7-.3-1.5-.4-2.4-.4v8.5Z"/>
      <path d="M392.8,320.9l-1.1,6.4h-18.2v-29.9h17.1l1.1,6.4h-9.6v5.4h8.6v6.4h-8.6v5.3h10.7Z"/>
      <path d="M423.4,297.4c2.4,0,4.5.5,6.3,1.4,1.8,1,3.2,2.2,4.3,3.6,1.1,1.5,1.9,3.1,2.5,4.9.5,1.8.8,3.5.8,5.1s-.3,3.7-.9,5.5c-.7,1.8-1.6,3.4-2.8,4.8-1.2,1.4-2.7,2.5-4.4,3.4-1.7.9-3.6,1.3-5.8,1.3h-11.8v-29.9h11.8ZM422.4,323.1c1.1,0,2-.3,2.8-.9.8-.6,1.5-1.4,2-2.4.5-1,.9-2.1,1.2-3.4.3-1.3.4-2.6.4-3.9s-.1-2.6-.4-3.9c-.3-1.3-.7-2.4-1.2-3.4-.5-1-1.2-1.8-2-2.5-.8-.6-1.8-.9-2.8-.9h-2.2v21.4h2.2Z"/>
      <path d="M461.1,320.9l-1.1,6.4h-18.2v-29.9h17.1l1.1,6.4h-9.6v5.4h8.6v6.4h-8.6v5.3h10.7Z"/>
      <path d="M490.8,297.4l-8.5,29.9h-8.6l-8.5-29.9h8.5l5.4,18.7,5.3-18.7h6.4Z"/>
      <path d="M514.2,320.9l-1.1,6.4h-18.2v-29.9h17.1l1.1,6.4h-9.6v5.4h8.6v6.4h-8.6v5.3h10.7Z"/>
      <path d="M537.7,327.4h-18.2v-29.9h8.5v23.5h8.6l1.1,6.4Z"/>
      <path d="M554.7,296.4c2.3,0,4.3.5,6,1.4,1.7.9,3.1,2.1,4.2,3.6,1.2,1.5,2,3.2,2.6,5.1.6,1.9.9,3.9.9,5.9s-.3,4-.9,5.9c-.6,1.9-1.4,3.6-2.6,5.1-1.1,1.5-2.6,2.7-4.2,3.6-1.7.9-3.7,1.4-6,1.4s-4.3-.5-6-1.4c-1.7-.9-3.1-2.1-4.3-3.6-1.1-1.5-2-3.2-2.6-5.1-.6-1.9-.9-3.9-.9-5.9s.3-3.9.9-5.9c.6-1.9,1.4-3.6,2.6-5.1,1.2-1.5,2.6-2.7,4.3-3.6,1.7-.9,3.7-1.4,6-1.4ZM554.7,323.8c.6,0,1.1-.2,1.7-.7.5-.4,1-1.1,1.5-2,.4-.9.8-2.1,1.1-3.5.3-1.4.4-3.1.4-5.1s-.1-3.7-.4-5.1c-.3-1.4-.6-2.6-1.1-3.6-.4-.9-.9-1.6-1.5-2-.5-.4-1.1-.6-1.7-.6s-1.1.2-1.7.6c-.5.4-1,1.1-1.5,2-.4.9-.8,2.1-1,3.6-.3,1.4-.4,3.2-.4,5.1s.1,3.7.4,5.1c.3,1.4.6,2.6,1,3.5.4.9.9,1.6,1.5,2,.5.4,1.1.7,1.7.7Z"/>
      <path d="M583.6,297.4c1.6,0,3.1.1,4.6.4,1.4.3,2.7.8,3.7,1.4,1.1.7,1.9,1.6,2.5,2.6s.9,2.4.9,4-.3,3-.9,4c-.6,1.1-1.5,2-2.5,2.6-1.1.7-2.3,1.2-3.7,1.4-1.4.3-3,.5-4.6.5h-2.2v12.8h-8.5v-29.9h10.7ZM581.4,310.3c.9,0,1.7-.1,2.4-.4.7-.3,1.3-.6,1.7-1,.4-.4.8-.8,1-1.4.2-.5.3-1,.3-1.5s-.1-1.1-.3-1.6c-.3-.5-.6-1-1-1.4-.5-.4-1.1-.7-1.7-.9-.7-.3-1.5-.4-2.4-.4v8.5Z"/>
      <path d="M619.1,320.9l-1.1,6.4h-18.2v-29.9h17.1l1.1,6.4h-9.6v5.4h8.6v6.4h-8.6v5.3h10.7Z"/>
      <path d="M648,327.4h-8.6l-4.2-12.8h-2.2v12.8h-8.5v-29.9h10.7c1.6,0,3.1.1,4.6.4,1.4.3,2.7.8,3.7,1.4,1.1.7,1.9,1.6,2.5,2.6s.9,2.4.9,4-.4,3.2-1.1,4.3c-.7,1.1-1.7,2-3,2.7l5.1,14.4ZM633,310.3c.9,0,1.7-.1,2.4-.4.7-.3,1.3-.6,1.7-1,.4-.4.8-.8,1-1.4.2-.5.3-1,.3-1.5s-.1-1.1-.3-1.6c-.3-.5-.6-1-1-1.4-.5-.4-1.1-.7-1.7-.9-.7-.3-1.5-.4-2.4-.4v8.5Z"/>
      <path d="M711.6,297.4v29.9h-8.5v-14.9l-4.3,14.9h-8.5l-4.3-14.9v14.9h-6.4v-29.9h10.7l5.3,18.7,5.4-18.7h10.7Z"/>
      <path d="M736.2,320.9l-1.1,6.4h-18.2v-29.9h17.1l1.1,6.4h-9.6v5.4h8.6v6.4h-8.6v5.3h10.7Z"/>
      <path d="M760.8,320.9l-1.1,6.4h-18.2v-29.9h17.1l1.1,6.4h-9.6v5.4h8.6v6.4h-8.6v5.3h10.7Z"/>
      <path d="M780.9,303.8v23.5h-8.6v-23.5h-7.5l1.1-6.4h21.4l1.1,6.4h-7.5Z"/>
      <path d="M817.4,297.4v15c0,1.9-.2,3.7-.7,5.5-.4,1.8-1.1,3.4-2.1,4.8-1,1.4-2.3,2.5-4,3.4-1.7.9-3.7,1.3-6.1,1.3s-4.4-.4-6-1.3c-1.6-.8-2.9-2-4-3.4-1-1.4-1.7-3-2.2-4.8-.4-1.8-.6-3.6-.6-5.5v-15h8.5v15c0,1.9,0,3.5.3,4.8.1,1.3.4,2.4.7,3.3.3.9.8,1.5,1.3,1.9.5.4,1.2.6,2,.6,1.6,0,2.7-.8,3.4-2.5.6-1.7.9-4.4.9-8.1v-15h8.5Z"/>
      <path d="M832.6,297.4c1.6,0,3.1.1,4.6.4,1.4.3,2.7.8,3.7,1.4,1.1.7,1.9,1.6,2.5,2.6s.9,2.4.9,4-.3,3-.9,4c-.6,1.1-1.5,2-2.5,2.6-1.1.7-2.3,1.2-3.7,1.4-1.4.3-3,.5-4.6.5h-2.2v12.8h-8.5v-29.9h10.7ZM830.4,310.3c.9,0,1.7-.1,2.4-.4.7-.3,1.3-.6,1.7-1,.4-.4.8-.8,1-1.4.2-.5.3-1,.3-1.5s-.1-1.1-.3-1.6c-.3-.5-.6-1-1-1.4-.5-.4-1.1-.7-1.7-.9-.7-.3-1.5-.4-2.4-.4v8.5Z"/>
      <g class="cls-14">
        <g class="cls-17">
          <g class="cls-15">
            <path class="cls-23" d="M472.2,255.5c-13.8-1-25-11.1-35-20.7-4.4-4.2-8.8-8.5-13.2-12.7-1.4-1.3-2.8-2.9-2.3-4.8.3-1,1.1-1.8,2.1-2.2,2-.8,4.1-.2,5.9.6,3,1.3,5.8,3.1,8.2,5.4,1.9,1.8,4.9-.2,4-2.7-1.3-3.5-3.5-6.8-6.1-9.5-4.6-5-10.4-8.7-15.3-13.4s-9.1-10.7-9.3-17.5c0-3.1,1.8-7.1,5.1-6,1.3.4,2.3,1.5,2.7,2.8,1.5,4.7,2.3,10,5.5,14,2.6,3.4,7.5,5.5,11.3,3.6,3.9-1.9,5.1-7,4.8-11.3-.6-8.4-5.4-16.3-12.6-20.7-1.7-1-3.5-1.9-4.7-3.5,0,0,0,0,0,0-1.6-2.2,0-5.4,2.8-5.4,4.3,0,8.6,1.6,11.8,4.5,1.1,1,2.1,2.2,3,3.5,1.5,2.4,5.1,1.8,5.8-.9,1.2-4.9,2.5-9.7,3.8-14.6,1.5-5.3,2.8-11.5-.4-16-2.3-3.1-6.1-4.5-9.5-6.5-3.3-1.9-6.5-5.4-5.7-9.2.9-4.4,7.1-6,11.1-3.8,4,2.1,6.2,6.5,8.1,10.6,1.2,2.7,2.4,5.5,4.8,7.1,2.4,1.7,6.3,1.6,7.6-1,1.8-3.5-2.2-8.2.2-11.4.9-1.3,2.6-1.9,4.2-1.6,2.9.5,4.6,3.1,5.2,5.8,1.1,4.6-.7,9.4-3.3,13.3-2.6,3.9-6.1,7.2-9,10.9-4.5,5.8-7.6,12.8-8.9,20.1-.2,1,1.3,1.5,1.7.5,1.2-2.6,2.7-5.1,4.9-7.3.6-.6,1.3-1.1,2.2-1.3,3.9-1.3,5.8,3.1,4.8,6.1-.8,2.5-2.9,4.3-4.8,6.1-4.7,4.4-11.1,11.5-13.4,16.5-.7,1.5,1.5,2.6,2.2,1.1,1.1-1.9,2.2-4.3,3.8-5.2,2.4-1.3,5.4-.5,6.6,1.9,1.7,3.4-1.8,6.8-4.6,9.3-8.5,8-12,20.8-8.7,32,3.2,11.2,13.1,20.1,24.5,22.3-.8,3.8-1,7.5-1.8,11.3Z"/>
          </g>
        </g>
      </g>
      <g class="cls-16">
        <g class="cls-22">
          <g class="cls-19">
            <path class="cls-23" d="M547.8,169.2c-4-.2-5.8-5.2-2.8-7.9.8-.8,1.7-1.5,2.7-2.1,3.4-2.4,7.3-4.3,10.5-7.1,6-5.3,9.2-13.7,7.9-21.7-.2-1.4-1.1-2.5-2.4-3-2.6-.9-4.3,1.8-4.6,4.1-.3,2.1,0,4.3-.9,6.1-2,3.7-8,3.2-10.7,0-2.7-3.2-2.9-7.8-2.6-12,.2-2.6.4-5.2-.3-7.6-.9-3.1-4.1-6-7.6-4.3-.9.4-1.6,1.1-2.2,1.8-1.5,2.1-1.8,4.7-1.7,7.2.2,4.6,1.6,9.2,4,13.1,1.2,2,2.7,3.9,3.5,6.1.8,2.2,1,4.9-.5,6.8-2.3,3-7.5,2.1-10-.8-2.5-2.9-3.2-6.9-3.8-10.7-.4-2.2-.7-4.5-1.9-6.4-1.1-1.9-3.1-3.5-5.4-3.5-2.9,0-5.2,2.7-5.6,5.5s.9,5.7,2.6,7.9c1.7,2.3,3.9,4.1,5.9,6.2,3.4,3.5,6.2,7.7,8.2,12.2,1.1,2.5,1.9,5.3,1,7.8-.9,2.5-4.3,4.2-6.4,2.5-2.9-2.3-.5-7.8-4.3-9.9-1.7-1-3.8-.7-5.4.5-3,2.4-3.1,6.6-1.9,10,.9,2.9,2.6,5.5,3.6,8.3,2.4,6.5,1.3,14.2-2.7,19.8-1.5,2.1-3.4,3.9-5.9,4.6-2.5.6-5.4-.4-6.4-2.7,2.3-1.8,4.8-3.8,5.8-6.5s-.1-6.5-3-7.2c-2.7-.7-5.3,1.6-7,3.8-13.8,16.8-19.8,39.8-16.1,61.2l18.8-.7c-2.4-5-4.8-10-5.7-15.4-.9-5.4-.1-11.4,3.3-15.7,3-3.7,7.5-5.7,11.9-7.2s9.1-2.9,12.9-5.6c5.7-4,9-10.7,10.4-17.7,1.3-6.6,7.3-11.2,14-10.6.2,0,.4,0,.6,0,2.1.3,4.2,1,6.3,1.4s4.4.5,6.4-.4c2-.9,3.5-3,3.2-5.2-.3-1.8-1.7-3.1-3.4-3.8-1.6-.7-3.4-.8-5.2-.8-2.3,0-4.8-.3-7.3-.4Z"/>
          </g>
        </g>
      </g>
      <g class="cls-18">
        <g class="cls-21">
          <g class="cls-20">
            <path class="cls-23" d="M472,250.8c-8.5-5-14.7-13.8-16.3-23.5-1.7-9.7,1.1-20.1,7.5-27.7,3.4-4,8.1-8.1,7.6-13.4-.2-2.1-1.3-4.1-1.9-6.2s-.5-4.6,1.1-6c1.9-1.6,4.9-.8,6.5,1,1.6,1.8,2.3,4.3,2.8,6.6.4,1.9,3.6,1.2,4.7-.4,1.2-1.6,1.1-3.8.3-5.6-.8-1.8-2.1-3.3-3.2-4.9-4.4-6-6.9-13.5-7-20.9,0-2,.1-4.2,1.3-5.9,1.1-1.7,3.5-2.7,5.3-1.7,2.2,1.3,2.1,4.5,1.7,7s-.2,5.8,2.2,6.8c1.7.7,3.7-.4,4.5-2,.9-1.6.8-3.5.5-5.3-.5-2.9-1.7-5.6-2-8.4-.4-2.9.3-6.2,2.6-7.9,2.3-1.7,6.5-.6,6.8,2.3.2,1.4-.6,2.8-1.1,4.1-.5,1.4-.6,3.1.6,4,1,.8,2.6.4,3.6-.4,1-.8,1.6-2,2.3-3.1,1.5-2.2,3.7-4.2,6.3-4.4,2.7-.2,5.5,1.9,5.3,4.6-.1,1.8-1.5,3.2-3,4.1-1.6.9-3.3,1.3-5,1.9-3.5,1.3-6.6,3.7-8.8,6.7-1.4,2-2.2,5.3,0,6.5,1.7,1,3.9-.4,5.2-2,1.3-1.6,2.4-3.5,4.3-4.1,2.9-.9,5.8,2.3,5.5,5.3-.3,3-2.8,5.4-5.5,6.6-2.7,1.2-5.8,1.6-8.7,2.5-2.9.8-5.8,2.3-7.3,4.9-3.2,5.5,1.3,13.2-2.2,18.4-2.2,3.2-6.5,4.1-10,5.7-7.7,3.6-12.6,12.4-11.6,20.9.2,2,1.2,4.3,3.2,4.6,2.2.3,3.7-2.2,4.6-4.3,2-4.8,3.9-9.6,5.9-14.3.7-1.7,1.5-3.5,2.8-4.8,1.3-1.3,3.4-2.1,5.1-1.4,2.5,1,3.1,4.4,2.1,6.8-1,2.5-3.1,4.3-4.8,6.3-4.5,5.1-7.1,11.8-7.2,18.6-.1,6.8,2.3,13.6,6.6,18.9l-13.1,3.5Z"/>
          </g>
        </g>
      </g>
      <g class="cls-9">
        <path class="cls-4" d="M430.6,208.3c-4.6,12.8-.3,21.9,3.5,17,2-2.5,3.5-8.3,3.7-11.5,0-.6,0-1.2,0-1.8-2.4-.8-5.2-2-7-3.6,0,0,0,0-.2-.1ZM420.4,194.5c.4,0,.8,0,1.1.2.3.2.6.5.6.9h0c0,.4,0,.8-.2,1.1-.2.3-.5.6-.9.7-.4,0-.8,0-1.1-.2-.3-.2-.6-.5-.6-.9,0-.4,0-.8.2-1.1.2-.3.5-.6.9-.6ZM406.5,199.4c-2,3.8-2.4,7.3-.3,9.9,2.6,3.1,13.4,7.8,16.1,2.9.8-1.4,2.2-4.2,2.2-4.2h0c0,.9-.6,2.5-.9,3.5,0,.3,0,.4.3.4,1-.1,3.7-1.4,4.5-2.3.3-.3,0-.4-.6-.7-2.2-1.3-3.9-3.9-3.8-7.1,0-.1,0-.3,0-.4.3,2.1,1.1,4.1,2.5,5.7,1.3,1.3,2.9,2,3.6-.3.1-.3.2-.7.2-1.2.3-2.3,0-4.7-.4-7.1,0-.1,0-.2,0-.2,0,0,0,0,0,0,1.1,2.5,1.3,5.8,1,8.6,0,.4-.1.8.2,1.1.5.5,1.1.9,1.6,1.2.6.4.7.2.9-.1.7-1.8.3-7.5,0-9.7,1.1,3,1.3,6.8,1.1,10,0,.7,0,.9.8,1.2.3.1.7.3,1,.4,1.1.4.9.1.8-.9,0-1.1-.2-2.5-.2-3.7,0-2.3.3-4.4,1.6-5.3,0,.1-.2.2-.3.4-.5,1.1-.5,3.2-.5,4.4.3,5.8,1.3,14.5,3,20,4.4,14,13.7,11.1,11.9-3.2,0-.5-.1-1-.2-1.5-.4-2.4-1.2-4.8-1.9-7.1-1.1-3.7-2.5-8.1-3.9-11.7-.4-1-.9-1.9-1.6-2.3,0,0,1,.2,1.9,1.7,1.7,2.7,3.4,8.5,4.6,12.2.2.8.4.9,1.2,1,20.8,3.4,40.3,2.9,61.1.7,9-.9,11.9-4.7,11.8-9.6,0-.2.8,3.4-1.3,6.1-2.2,2.8-6.3,4-10.8,4.4.9.3,1.8.9,2.6,1.7,5.5,5.8,10.8,10.9,17.6,13,12,3.8,22.5-2.4,25.7-10.3,3.3-8.2-1.3-18.4-20.6-21.4-1.7-.3-3.3-.5-4.8-.8-7.5-1.4-9.7-3-13.1-7.2-20.7-25.9-51.6-33.3-78.5-22.6-13.4,5.3-29.8,18.1-36.3,30.7"/>
      </g>
      <path class="cls-3" d="M420.6,195.1c.5,0,.9.2,1,.6,0,.5-.2.9-.6,1-.5,0-.9-.2-1-.6,0-.4.2-.9.6-1"/>
      <g class="cls-7">
        <g class="cls-13">
          <path d="M423.4,176.4h59.3v37.9h-59.3v-37.9Z"/>
        </g>
      </g>
      <g class="cls-11">
        <g class="cls-12">
          <g class="cls-10">
            <path d="M502.9,194.5l29.4,6.3-4,18.8-29.4-6.3,4-18.8Z"/>
          </g>
        </g>
      </g>
      <g class="cls-8">
        <g class="cls-6">
          <path class="cls-24" d="M419.2,193.8h3.7v3.7h-3.7v-3.7Z"/>
        </g>
      </g>
    </g>
  </g>
</svg>