<?xml version="1.0" encoding="UTF-8"?>
<svg xmlns="http://www.w3.org/2000/svg" xmlns:xlink="http://www.w3.org/1999/xlink" version="1.1" viewBox="0 0 831.6 164.5">
  <defs>
    <style>
      .cls-1 {
        fill: none;
      }

      .cls-2 {
        fill: #fff;
      }

      .cls-2, .cls-3 {
        fill-rule: evenodd;
      }

      .cls-4 {
        clip-path: url(#clippath-11);
      }

      .cls-5 {
        clip-path: url(#clippath-10);
      }

      .cls-6 {
        clip-path: url(#clippath-13);
      }

      .cls-7 {
        clip-path: url(#clippath-14);
      }

      .cls-8 {
        clip-path: url(#clippath-12);
      }

      .cls-9 {
        clip-path: url(#clippath-1);
      }

      .cls-10 {
        clip-path: url(#clippath-3);
      }

      .cls-11 {
        clip-path: url(#clippath-4);
      }

      .cls-12 {
        clip-path: url(#clippath-2);
      }

      .cls-13 {
        clip-path: url(#clippath-7);
      }

      .cls-14 {
        clip-path: url(#clippath-6);
      }

      .cls-15 {
        clip-path: url(#clippath-9);
      }

      .cls-16 {
        clip-path: url(#clippath-8);
      }

      .cls-17 {
        clip-path: url(#clippath-5);
      }

      .cls-18 {
        fill: #d64772;
      }

      .cls-19 {
        clip-path: url(#clippath);
      }
    </style>
    <clipPath id="clippath">
      <rect class="cls-1" x="308.9" width="69.3" height="157.3"/>
    </clipPath>
    <clipPath id="clippath-1">
      <rect class="cls-1" x="310.6" y="-1.1" width="157" height="161" transform="translate(276.7 460.2) rotate(-85.1)"/>
    </clipPath>
    <clipPath id="clippath-2">
      <rect class="cls-1" x="310.6" y="-1.1" width="157" height="161" transform="translate(276.7 460.2) rotate(-85.1)"/>
    </clipPath>
    <clipPath id="clippath-3">
      <rect class="cls-1" x="380.9" y="6.7" width="92" height="146.7"/>
    </clipPath>
    <clipPath id="clippath-4">
      <rect class="cls-1" x="310.6" y="-1.1" width="157" height="161" transform="translate(276.7 460.2) rotate(-85.1)"/>
    </clipPath>
    <clipPath id="clippath-5">
      <rect class="cls-1" x="310.6" y="-1.1" width="157" height="161" transform="translate(276.7 460.2) rotate(-85.1)"/>
    </clipPath>
    <clipPath id="clippath-6">
      <rect class="cls-1" x="354.3" y="25.3" width="64" height="128"/>
    </clipPath>
    <clipPath id="clippath-7">
      <rect class="cls-1" x="310.6" y="-1.1" width="157" height="161" transform="translate(276.7 460.2) rotate(-85.1)"/>
    </clipPath>
    <clipPath id="clippath-8">
      <rect class="cls-1" x="310.6" y="-1.1" width="157" height="161" transform="translate(276.7 460.2) rotate(-85.1)"/>
    </clipPath>
    <clipPath id="clippath-9">
      <rect class="cls-1" x="302.2" y="54.8" width="164.8" height="74.7"/>
    </clipPath>
    <clipPath id="clippath-10">
      <rect class="cls-1" x="321.8" y="67.6" width="62.8" height="40"/>
    </clipPath>
    <clipPath id="clippath-11">
      <path class="cls-1" d="M353.2,67.6c-17.3,0-31.4,9-31.4,20s14,20,31.4,20,31.4-9,31.4-20-14-20-31.4-20Z"/>
    </clipPath>
    <clipPath id="clippath-12">
      <rect class="cls-1" x="402.3" y="89.3" width="33.3" height="21.3"/>
    </clipPath>
    <clipPath id="clippath-13">
      <rect class="cls-1" x="408.4" y="84" width="20.3" height="31.9" transform="translate(233.7 488.5) rotate(-78)"/>
    </clipPath>
    <clipPath id="clippath-14">
      <path class="cls-1" d="M420.7,90c-8.6-1.8-16.5,1.1-17.7,6.6-1.2,5.5,4.9,11.4,13.5,13.2,8.6,1.8,16.5-1.1,17.7-6.6,1.2-5.5-4.9-11.4-13.5-13.2Z"/>
    </clipPath>
  </defs>
  <!-- Generator: Adobe Illustrator 28.7.1, SVG Export Plug-In . SVG Version: 1.2.0 Build 142)  -->
  <g>
    <g id="Layer_1">
      <path d="M0,140.1V27.6c0-1.6.8-2.4,2.4-2.4h62.9c1.6,0,2.4.8,2.4,2.4v2.8c0,1.6.8,2.4,2.4,2.4h2.8c1.6,0,2.4.8,2.4,2.4v2.8c0,1.6.8,2.4,2.4,2.4h2.8c1.6,0,2.4.8,2.4,2.4v82.5c0,1.6-.8,2.4-2.4,2.4h-2.8c-1.6,0-2.4.8-2.4,2.4v2.8c0,1.6-.8,2.4-2.4,2.4h-2.8c-1.6,0-2.4.8-2.4,2.4v2.8c0,1.6-.8,2.4-2.4,2.4H2.4c-1.6,0-2.4-.8-2.4-2.4ZM33.8,35.1v97.5c0,1.6.8,2.4,2.4,2.4h2.8c1.6,0,2.4-.8,2.4-2.4v-2.8c0-1.6.8-2.4,2.4-2.4h2.8c1.6,0,2.4-.8,2.4-2.4V42.6c0-1.6-.8-2.4-2.4-2.4h-2.8c-1.6,0-2.4-.8-2.4-2.4v-2.8c0-1.6-.8-2.4-2.4-2.4h-2.8c-1.6,0-2.4.8-2.4,2.4Z"/>
      <path d="M119.2,140.1v-2.8c0-1.6-.8-2.4-2.4-2.4h-2.8c-1.6,0-2.4-.8-2.4-2.4v-2.8c0-1.6-.8-2.4-2.4-2.4h-2.8c-1.6,0-2.4-.8-2.4-2.4v-52.9c0-1.6.8-2.4,2.4-2.4h2.8c1.6,0,2.4-.8,2.4-2.4v-2.8c0-1.6.8-2.4,2.4-2.4h2.8c1.6,0,2.4-.8,2.4-2.4v-2.8c0-1.6.8-2.4,2.4-2.4h47.9c1.6,0,2.4.8,2.4,2.4v2.8c0,1.6.8,2.4,2.4,2.4h2.8c1.6,0,2.4.8,2.4,2.4v2.8c0,1.6.8,2.4,2.4,2.4h2.8c1.6,0,2.4.8,2.4,2.4v20.3c0,1.6-.8,2.4-2.4,2.4h-2.8c-1.6,0-2.4.8-2.4,2.4v2.8c0,1.6-.8,2.4-2.4,2.4h-36.6c-1.6,0-2.4.8-2.4,2.4v27.8c0,1.6.8,2.4,2.4,2.4h2.8c1.6,0,2.4-.8,2.4-2.4v-2.8c0-1.6.8-2.4,2.4-2.4h2.8c1.6,0,2.4-.8,2.4-2.4v-8.6c0-1.6.8-2.4,2.4-2.4h29.1c1.6,0,2.4.8,2.4,2.4v8.6c0,1.6-.8,2.4-2.4,2.4h-2.8c-1.6,0-2.4.8-2.4,2.4v2.8c0,1.6-.8,2.4-2.4,2.4h-2.8c-1.6,0-2.4.8-2.4,2.4v2.8c0,1.6-.8,2.4-2.4,2.4h-47.9c-1.6,0-2.4-.8-2.4-2.4ZM140.4,94.9h10.3c1.6,0,2.4-.8,2.4-2.4v-27.8c0-1.6-.8-2.4-2.4-2.4h-2.8c-1.6,0-2.4.8-2.4,2.4v2.8c0,1.6-.8,2.4-2.4,2.4h-2.8c-1.6,0-2.4.8-2.4,2.4v20.3c0,1.6.8,2.4,2.4,2.4Z"/>
      <path d="M213.3,140.1v-2.8c0-1.6-.8-2.4-2.4-2.4h-2.8c-1.6,0-2.4-.8-2.4-2.4V57.2c0-1.6.8-2.4,2.4-2.4h29.1c1.6,0,2.4.8,2.4,2.4v75.5c0,1.6.8,2.4,2.4,2.4h3.6c1.6,0,2.4-.8,2.4-2.4v-2.8c0-1.6.8-2.4,2.4-2.4h2.8c1.6,0,2.4-.8,2.4-2.4V57.2c0-1.6.8-2.4,2.4-2.4h29.1c1.6,0,2.4.8,2.4,2.4v52.9c0,1.6-.8,2.4-2.4,2.4h-4.1c-1.6,0-2.4.8-2.4,2.4v2.8c0,1.6-.8,2.4-2.4,2.4h-2.8c-1.6,0-2.4.8-2.4,2.4v2.8c0,1.6-.8,2.4-2.4,2.4h-2.8c-1.6,0-2.4.8-2.4,2.4v2.8c0,1.6-.8,2.4-2.4,2.4h-1.3c-1.6,0-2.4.8-2.4,2.4v2.8c0,1.6-.8,2.4-2.4,2.4h-41.4c-1.6,0-2.4-.8-2.4-2.4Z"/>
      <path d="M485.7,140.1V27.6c0-1.6.8-2.4,2.4-2.4h62.9c1.6,0,2.4.8,2.4,2.4v2.8c0,1.6.8,2.4,2.4,2.4h2.8c1.6,0,2.4.8,2.4,2.4v2.8c0,1.6.8,2.4,2.4,2.4h2.8c1.6,0,2.4.8,2.4,2.4v82.5c0,1.6-.8,2.4-2.4,2.4h-2.8c-1.6,0-2.4.8-2.4,2.4v2.8c0,1.6-.8,2.4-2.4,2.4h-2.8c-1.6,0-2.4.8-2.4,2.4v2.8c0,1.6-.8,2.4-2.4,2.4h-62.9c-1.6,0-2.4-.8-2.4-2.4ZM519.5,35.1v97.5c0,1.6.8,2.4,2.4,2.4h2.8c1.6,0,2.4-.8,2.4-2.4v-2.8c0-1.6.8-2.4,2.4-2.4h2.8c1.6,0,2.4-.8,2.4-2.4V42.6c0-1.6-.8-2.4-2.4-2.4h-2.8c-1.6,0-2.4-.8-2.4-2.4v-2.8c0-1.6-.8-2.4-2.4-2.4h-2.8c-1.6,0-2.4.8-2.4,2.4Z"/>
      <path d="M589.8,140.1V57.2c0-1.6.8-2.4,2.4-2.4h29.1c1.6,0,2.4.8,2.4,2.4v83c0,1.6-.8,2.4-2.4,2.4h-29.1c-1.6,0-2.4-.8-2.4-2.4ZM593.6,44.9v-.3c0-1.6-.9-2.4-2.6-2.4s-2.4-.8-2.4-2.4v-11.5c0-1.6.9-2.4,2.6-2.4s2.4-.9,2.4-2.6.8-2.4,2.4-2.4h21.6c1.6,0,2.4.9,2.4,2.6s.9,2.4,2.6,2.4,2.4.8,2.4,2.4v11.5c0,1.6-.9,2.4-2.6,2.4s-2.4.9-2.4,2.6-.8,2.4-2.4,2.4h-21.6c-1.6,0-2.4-.8-2.4-2.4Z"/>
      <path d="M652.6,140.1v-2.8c0-1.6-.8-2.4-2.4-2.4h-2.8c-1.6,0-2.4-.8-2.4-2.4V57.2c0-1.6.8-2.4,2.4-2.4h29.1c1.6,0,2.4.8,2.4,2.4v75.5c0,1.6.8,2.4,2.4,2.4h3.6c1.6,0,2.4-.8,2.4-2.4v-2.8c0-1.6.8-2.4,2.4-2.4h2.8c1.6,0,2.4-.8,2.4-2.4V57.2c0-1.6.8-2.4,2.4-2.4h29.1c1.6,0,2.4.8,2.4,2.4v52.9c0,1.6-.8,2.4-2.4,2.4h-4.1c-1.6,0-2.4.8-2.4,2.4v2.8c0,1.6-.8,2.4-2.4,2.4h-2.8c-1.6,0-2.4.8-2.4,2.4v2.8c0,1.6-.8,2.4-2.4,2.4h-2.8c-1.6,0-2.4.8-2.4,2.4v2.8c0,1.6-.8,2.4-2.4,2.4h-1.3c-1.6,0-2.4.8-2.4,2.4v2.8c0,1.6-.8,2.4-2.4,2.4h-41.4c-1.6,0-2.4-.8-2.4-2.4Z"/>
      <path d="M763.9,140.1v-2.8c0-1.6-.8-2.4-2.4-2.4h-2.8c-1.6,0-2.4-.8-2.4-2.4v-2.8c0-1.6-.8-2.4-2.4-2.4h-2.8c-1.6,0-2.4-.8-2.4-2.4v-52.9c0-1.6.8-2.4,2.4-2.4h2.8c1.6,0,2.4-.8,2.4-2.4v-2.8c0-1.6.8-2.4,2.4-2.4h2.8c1.6,0,2.4-.8,2.4-2.4v-2.8c0-1.6.8-2.4,2.4-2.4h47.9c1.6,0,2.4.8,2.4,2.4v2.8c0,1.6.8,2.4,2.4,2.4h2.8c1.6,0,2.4.8,2.4,2.4v2.8c0,1.6.8,2.4,2.4,2.4h2.8c1.6,0,2.4.8,2.4,2.4v20.3c0,1.6-.8,2.4-2.4,2.4h-2.8c-1.6,0-2.4.8-2.4,2.4v2.8c0,1.6-.8,2.4-2.4,2.4h-36.6c-1.6,0-2.4.8-2.4,2.4v27.8c0,1.6.8,2.4,2.4,2.4h2.8c1.6,0,2.4-.8,2.4-2.4v-2.8c0-1.6.8-2.4,2.4-2.4h2.8c1.6,0,2.4-.8,2.4-2.4v-8.6c0-1.6.8-2.4,2.4-2.4h29.1c1.6,0,2.4.8,2.4,2.4v8.6c0,1.6-.8,2.4-2.4,2.4h-2.8c-1.6,0-2.4.8-2.4,2.4v2.8c0,1.6-.8,2.4-2.4,2.4h-2.8c-1.6,0-2.4.8-2.4,2.4v2.8c0,1.6-.8,2.4-2.4,2.4h-47.9c-1.6,0-2.4-.8-2.4-2.4ZM785.1,94.9h10.3c1.6,0,2.4-.8,2.4-2.4v-27.8c0-1.6-.8-2.4-2.4-2.4h-2.8c-1.6,0-2.4.8-2.4,2.4v2.8c0,1.6-.8,2.4-2.4,2.4h-2.8c-1.6,0-2.4.8-2.4,2.4v20.3c0,1.6.8,2.4,2.4,2.4Z"/>
      <g class="cls-19">
        <g class="cls-9">
          <g class="cls-12">
            <path class="cls-18" d="M373.4,157c-14.6-1.1-26.4-11.8-36.9-21.9-4.7-4.5-9.3-8.9-14-13.4-1.4-1.4-3-3-2.4-5.1.3-1.1,1.2-1.9,2.2-2.3,2.1-.8,4.3-.2,6.2.7,3.2,1.4,6.1,3.3,8.7,5.7,2,1.9,5.2-.2,4.2-2.8-1.4-3.7-3.7-7.2-6.4-10.1-4.9-5.2-10.9-9.2-16.1-14.2s-9.6-11.3-9.8-18.5c0-3.3,1.8-7.5,5.4-6.3,1.4.4,2.4,1.6,2.8,2.9,1.6,5,2.5,10.6,5.8,14.8,2.8,3.5,7.9,5.8,11.9,3.8,4.1-2,5.4-7.4,5-12-.7-8.8-5.7-17.2-13.3-21.9-1.8-1.1-3.7-2.1-4.9-3.7,0,0,0,0,0,0-1.7-2.4,0-5.7,3-5.7,4.5,0,9,1.7,12.4,4.8,1.2,1.1,2.3,2.3,3.1,3.7,1.6,2.5,5.4,1.9,6.2-1,1.3-5.1,2.6-10.3,4-15.4,1.6-5.6,3-12.1-.4-16.9-2.4-3.3-6.5-4.8-10-6.8-3.5-2.1-6.9-5.7-6.1-9.7,1-4.7,7.5-6.3,11.7-4.1,4.2,2.2,6.6,6.8,8.5,11.2,1.2,2.8,2.5,5.8,5,7.5,2.5,1.8,6.6,1.6,8-1.1,1.9-3.7-2.3-8.6.2-12.1,1-1.4,2.8-2,4.4-1.7,3,.6,4.8,3.3,5.5,6.1,1.1,4.8-.7,9.9-3.5,14.1-2.8,4.1-6.4,7.6-9.5,11.5-4.8,6.2-8,13.5-9.4,21.2-.2,1.1,1.3,1.6,1.8.6,1.3-2.8,2.9-5.4,5.1-7.7s1.4-1.1,2.3-1.4c4.2-1.3,6.2,3.3,5.1,6.5-.9,2.6-3.1,4.5-5.1,6.4-4.9,4.6-11.7,12.1-14.2,17.4-.7,1.5,1.5,2.7,2.3,1.2,1.1-2.1,2.3-4.6,4-5.5,2.5-1.3,5.7-.5,6.9,2.1,1.8,3.6-1.9,7.2-4.8,9.9-8.9,8.4-12.7,22-9.2,33.8,3.4,11.8,13.8,21.3,25.9,23.6-.8,4-1.1,7.9-1.9,11.9Z"/>
          </g>
        </g>
      </g>
      <g class="cls-10">
        <g class="cls-11">
          <g class="cls-17">
            <path class="cls-18" d="M453.3,65.8c-4.2-.2-6.1-5.5-3-8.3.9-.8,1.8-1.6,2.8-2.3,3.6-2.6,7.7-4.6,11.1-7.5,6.4-5.6,9.7-14.5,8.4-22.9-.2-1.4-1.2-2.7-2.6-3.2-2.7-.9-4.5,1.9-4.8,4.4-.3,2.2,0,4.5-1,6.4-2.1,3.9-8.4,3.4-11.3,0-2.8-3.4-3.1-8.2-2.8-12.7.2-2.7.5-5.5-.3-8.1-1-3.3-4.3-6.3-8-4.5-.9.4-1.7,1.1-2.3,1.9-1.6,2.2-1.9,4.9-1.8,7.6.2,4.9,1.7,9.7,4.2,13.9,1.3,2.1,2.9,4.1,3.8,6.5.9,2.3,1,5.2-.5,7.1-2.5,3.2-7.9,2.2-10.6-.8-2.7-3-3.3-7.3-4-11.3-.4-2.3-.8-4.7-2-6.8-1.2-2.1-3.3-3.7-5.7-3.7-3,0-5.5,2.8-5.9,5.8s.9,6,2.7,8.4c1.8,2.4,4.2,4.3,6.3,6.5,3.6,3.7,6.6,8.1,8.7,12.9,1.1,2.6,2,5.6,1,8.2s-4.6,4.4-6.8,2.7c-3.1-2.4-.6-8.2-4.5-10.5-1.8-1-4.1-.8-5.7.5-3.2,2.5-3.2,6.9-2.1,10.5,1,3,2.7,5.8,3.8,8.8,2.5,6.9,1.4,15-2.8,21-1.5,2.2-3.6,4.2-6.2,4.8s-5.7-.4-6.8-2.9c2.5-1.9,5-4,6.1-6.9s-.1-6.9-3.1-7.7c-2.9-.7-5.5,1.7-7.4,4-14.6,17.8-21,42-17,64.7l19.8-.7c-2.5-5.2-5.1-10.6-6.1-16.3-1-5.7-.2-12,3.5-16.6,3.1-3.9,7.9-6,12.6-7.7,4.7-1.7,9.6-3,13.6-5.9,6-4.3,9.6-11.3,11-18.7,1.4-6.9,7.8-11.9,14.8-11.2.2,0,.4,0,.6,0,2.3.3,4.5,1,6.7,1.5,2.2.4,4.7.5,6.7-.4,2.1-.9,3.7-3.2,3.3-5.5-.3-1.8-1.8-3.3-3.6-4-1.7-.7-3.6-.8-5.5-.9-2.4,0-5.1-.3-7.7-.4Z"/>
          </g>
        </g>
      </g>
      <g class="cls-14">
        <g class="cls-13">
          <g class="cls-16">
            <path class="cls-18" d="M373.1,152.1c-9-5.2-15.5-14.6-17.3-24.8-1.8-10.3,1.2-21.3,7.9-29.2,3.6-4.3,8.5-8.6,8-14.1-.2-2.3-1.4-4.3-2-6.5-.6-2.2-.5-4.9,1.2-6.3,2-1.7,5.2-.8,6.9,1.1,1.7,1.9,2.4,4.5,3,7,.5,2,3.8,1.2,5-.4,1.2-1.7,1.1-4,.3-5.9-.8-1.9-2.2-3.5-3.4-5.2-4.7-6.4-7.3-14.2-7.4-22.1,0-2.2.2-4.4,1.4-6.2,1.2-1.8,3.7-2.8,5.6-1.8,2.4,1.3,2.2,4.7,1.8,7.4-.4,2.7-.2,6.2,2.3,7.2,1.8.7,3.9-.4,4.8-2.1.9-1.7.9-3.7.6-5.6-.5-3-1.8-5.9-2.1-8.9-.4-3,.3-6.5,2.7-8.3,2.5-1.8,6.9-.6,7.2,2.4.2,1.5-.6,2.9-1.1,4.3-.5,1.4-.6,3.3.6,4.2,1.1.8,2.7.5,3.8-.4,1-.9,1.7-2.1,2.4-3.3,1.5-2.3,3.9-4.4,6.7-4.6,2.8-.2,5.8,2,5.6,4.8-.1,1.9-1.6,3.4-3.2,4.3-1.6.9-3.5,1.3-5.2,2-3.7,1.4-7,3.9-9.3,7.1-1.5,2.1-2.3,5.6,0,6.9,1.8,1.1,4.2-.4,5.5-2.1,1.3-1.7,2.5-3.8,4.6-4.4,3-.9,6.1,2.5,5.8,5.6-.3,3.2-2.9,5.7-5.8,7s-6.1,1.7-9.2,2.6c-3.1.9-6.2,2.4-7.7,5.2-3.3,5.8,1.4,13.9-2.4,19.5-2.3,3.4-6.8,4.3-10.6,6-8.1,3.8-13.3,13.1-12.2,22.1.3,2.1,1.3,4.6,3.3,4.8,2.4.3,4-2.3,4.9-4.5,2.1-5.1,4.2-10.1,6.2-15.2.8-1.8,1.5-3.7,2.9-5.1,1.4-1.4,3.6-2.2,5.4-1.5,2.6,1,3.3,4.6,2.2,7.2-1,2.6-3.2,4.5-5.1,6.6-4.8,5.4-7.5,12.5-7.6,19.7-.1,7.2,2.4,14.4,7,19.9l-13.9,3.7Z"/>
          </g>
        </g>
      </g>
      <g class="cls-15">
        <path class="cls-3" d="M329.4,101.5c-4.9,13.5-.4,23.1,3.7,18,2.1-2.6,3.7-8.8,3.9-12.1,0-.7,0-1.3,0-1.9-2.5-.8-5.5-2.2-7.4-3.8,0,0-.1,0-.2-.2ZM318.7,87c.4,0,.8,0,1.2.2.3.2.6.6.7,1h0c0,.4,0,.9-.2,1.2-.2.3-.6.6-1,.7-.4,0-.8,0-1.2-.2-.3-.2-.6-.6-.7-1s0-.8.2-1.2c.2-.3.6-.6,1-.7ZM303.9,92.2c-2.1,4-2.6,7.7-.3,10.5,2.7,3.3,14.2,8.2,17,3,.8-1.4,2.3-4.5,2.3-4.5h0c0,1-.7,2.7-.9,3.6,0,.3,0,.4.3.4,1-.1,3.9-1.5,4.8-2.4.3-.3,0-.4-.6-.8-2.3-1.3-4.1-4.1-4-7.5,0-.2,0-.3,0-.4.3,2.2,1.1,4.4,2.7,6,1.3,1.4,3.1,2.1,3.8-.3.1-.4.2-.8.3-1.2.3-2.5,0-5-.4-7.5,0-.1,0-.2,0-.3,0,0,0,0,0,0,1.1,2.6,1.4,6.1,1,9.1,0,.4-.1.8.2,1.1.6.5,1.1.9,1.7,1.3.6.4.8.2.9-.1.8-1.9.4-7.9,0-10.3,1.2,3.2,1.4,7.2,1.1,10.5,0,.7,0,.9.8,1.3.4.1.7.3,1.1.4,1.2.4,1,.1.9-1,0-1.2-.2-2.6-.2-3.9,0-2.5.4-4.6,1.7-5.6-.1.1-.2.3-.3.4-.6,1.2-.5,3.4-.5,4.7.3,6.1,1.4,15.3,3.2,21.1,4.6,14.8,14.4,11.7,12.5-3.3,0-.5-.1-1-.2-1.5-.5-2.5-1.2-5.1-2-7.5-1.2-3.9-2.6-8.6-4.2-12.4-.4-1-.9-2-1.6-2.5,0,0,1.1.3,2,1.8,1.7,2.8,3.6,9,4.8,12.9.3.9.4.9,1.3,1.1,22,3.6,42.6,3.1,64.5.8,9.5-1,12.6-5,12.4-10.2,0-.2.9,3.6-1.4,6.4-2.4,2.9-6.7,4.2-11.4,4.7,1,.4,1.9.9,2.7,1.8,5.8,6.2,11.4,11.5,18.6,13.7,12.6,4,23.7-2.5,27.1-10.8,3.5-8.7-1.4-19.5-21.8-22.6-1.8-.3-3.5-.6-5-.8-7.9-1.5-10.3-3.1-13.9-7.6-21.9-27.4-54.5-35.2-83-23.8-14.1,5.6-31.5,19.1-38.3,32.4"/>
      </g>
      <path class="cls-2" d="M318.8,87.6c.5,0,1,.2,1.1.7.1.5-.2.9-.7,1-.5.1-.9-.2-1.1-.7,0-.5.2-.9.7-1"/>
      <g class="cls-5">
        <g class="cls-4">
          <path d="M321.8,67.6h62.7v40h-62.7v-40Z"/>
        </g>
      </g>
      <g class="cls-8">
        <g class="cls-6">
          <g class="cls-7">
            <path d="M405.1,86.7l31.1,6.6-4.2,19.9-31.1-6.6,4.2-19.9Z"/>
          </g>
        </g>
      </g>
    </g>
  </g>
</svg>